<svg width="77" height="77" viewBox="0 0 77 77" fill="none" xmlns="http://www.w3.org/2000/svg">
<rect width="77" height="77" rx="10" fill="#F3F5FC"/>
<path fill-rule="evenodd" clip-rule="evenodd" d="M45.3958 38.6529C45.3524 38.9311 45.2466 39.1959 45.0863 39.4275C44.926 39.659 44.7154 39.8512 44.4703 39.9898C43.9766 40.3086 43.5447 40.468 43.1077 40.6274C42.177 40.9488 41.1974 41.2702 40.1613 41.643C39.0687 42.0157 38.0891 42.3885 37.215 42.6585C36.1249 43.0313 35.0888 43.3526 34.1041 43.7254C33.3633 44.0425 32.6674 44.4556 32.0345 44.9544C31.4458 45.4877 30.9321 46.0983 30.5073 46.7695C30.0703 47.515 29.7952 48.4766 29.7952 49.5975C29.7952 51.842 30.3402 53.5491 31.4329 54.6161C32.523 55.7396 34.5438 56.2718 37.5389 56.2718C40.5933 56.2718 42.6655 55.6856 43.7607 54.5107C44.8482 53.3357 45.3932 51.6826 45.3932 49.5487V38.6529H45.3958ZM37.5415 15C42.8891 15 46.815 16.0155 49.3217 18.098C51.831 20.1291 53.0856 22.7412 53.0856 25.8366V52.2148C53.0856 53.2817 52.8696 54.4567 52.4891 55.737C52.1035 57.0225 51.3425 58.1949 50.1418 59.2592C48.9977 60.3313 47.4166 61.2389 45.3984 61.933C43.3802 62.6272 40.7629 63 37.5441 63C34.3304 63 31.708 62.6272 29.6923 61.933C27.6767 61.2389 26.093 60.3313 24.9489 59.2592C23.8846 58.3001 23.0783 57.089 22.6042 55.737C22.2185 54.4592 22 53.2843 22 52.2174V48.001C22 45.7565 22.599 43.674 23.7997 41.8563C25.0003 39.9898 26.6894 38.7095 28.8722 37.9073C29.9623 37.5345 31.2169 37.1618 32.6335 36.681C34.0527 36.1976 35.3588 35.7169 36.6699 35.2927C37.9811 34.8633 39.1252 34.434 40.1048 34.0586C40.6959 33.8221 41.2963 33.6094 41.9044 33.421L42.8866 32.9402C43.2722 32.7268 43.6501 32.4055 44.0332 31.9787C44.4137 31.5545 44.7402 31.0737 45.0153 30.5389C45.306 29.9599 45.4557 29.3203 45.4524 28.6724V26.9627C45.4564 26.3361 45.3249 25.716 45.0667 25.145C44.8508 24.5023 44.4137 23.9161 43.8147 23.3839C43.2156 22.8492 42.3955 22.4224 41.416 22.0984C40.4338 21.7822 39.1278 21.6202 37.6521 21.6202C34.5977 21.6202 32.5795 22.2116 31.4894 23.4354C30.5639 24.5049 30.0189 25.8392 29.9109 27.3329C29.9109 27.6543 29.6383 27.8677 29.3093 27.8677L22.6582 27.9757C22.5002 27.9764 22.3483 27.9146 22.2356 27.8039C22.123 27.6931 22.0586 27.5423 22.0566 27.3844V25.8418C22.0566 24.3429 22.3317 22.9546 22.9307 21.6202C23.5323 20.2833 24.4604 19.165 25.7125 18.2009C26.9671 17.2419 28.6048 16.4423 30.5665 15.9076C32.4767 15.2648 34.8214 15 37.5467 15H37.5415Z" fill="#0A3871"/>
</svg>
